<?xml version="1.0" encoding="utf-8"?>
<!-- Generator: Adobe Illustrator 25.2.1, SVG Export Plug-In . SVG Version: 6.00 Build 0)  -->
<svg version="1.1" id="_x31__x2C_5" xmlns="http://www.w3.org/2000/svg" xmlns:xlink="http://www.w3.org/1999/xlink" x="0px"
	 y="0px" viewBox="0 0 512 512" style="enable-background:new 0 0 512 512;" xml:space="preserve">
<style type="text/css">
	.st0{fill:#EFEFEF;}
	.st1{fill:#A4AFC1;}
	.st2{fill:#F3F3F1;}
	.st3{fill:#6154FA;}
	.st4{fill:#6580E7;}
	.st5{fill:#D5DBE1;}
	.st6{fill:#607DD8;}
</style>
<path class="st0" d="M392.9,452.7c-98.4,0-165.9,51-213.3,51s-147-27.2-147-245.3S166.5,8.3,218.6,8.3
	C462.8,8.3,567.1,452.7,392.9,452.7z"/>
<path class="st1" d="M49.8,227.6c-11.8,0-21.3-9.6-21.3-21.3c0-11.8,9.6-21.3,21.3-21.3s21.3,9.6,21.3,21.3S61.5,227.6,49.8,227.6z
	 M49.8,199.1c-3.9,0-7.1,3.2-7.1,7.1c0,3.9,3.2,7.1,7.1,7.1s7.1-3.2,7.1-7.1C56.9,202.3,53.7,199.1,49.8,199.1z"/>
<path class="st2" d="M124.4,138.7h263.1v192H124.4V138.7z"/>
<g>
	<path class="st3" d="M280.9,181.3h35.6V288h-35.6V181.3z"/>
	<path class="st4" d="M195.6,224h35.6v64h-35.6V224z"/>
	<path class="st3" d="M401.8,138.7H110.2c-7.9,0-14.2-6.4-14.2-14.2v-14.2c0-7.9,6.4-14.2,14.2-14.2h291.6c7.9,0,14.2,6.4,14.2,14.2
		v14.2C416,132.3,409.6,138.7,401.8,138.7z"/>
</g>
<path class="st5" d="M124.4,138.7h32v192h-32C124.4,330.7,124.4,138.7,124.4,138.7z"/>
<path class="st6" d="M280.9,181.3h32V288h-32V181.3z"/>
<path class="st3" d="M195.6,224h32v64h-32V224z"/>
<path class="st6" d="M128,124.4v-14.2c0-7.9,6.4-14.2,14.2-14.2h-32c-7.9,0-14.2,6.4-14.2,14.2v14.2c0,7.9,6.4,14.2,14.2,14.2h32
	C134.4,138.7,128,132.3,128,124.4z"/>
<path d="M170.7,277.3h170.7v21.3H170.7V277.3z"/>
<path d="M327.1,288h-21.3v-96h-14.2v96h-21.3V181.3c0-5.9,4.8-10.7,10.7-10.7h35.6c5.9,0,10.7,4.8,10.7,10.7V288H327.1z"/>
<path d="M241.8,288h-21.3v-53.3h-14.2V288H185v-64c0-5.9,4.8-10.7,10.7-10.7h35.6c5.9,0,10.7,4.8,10.7,10.7v64H241.8z"/>
<path d="M401.8,149.3H110.2c-13.7,0-24.9-11.2-24.9-24.9v-14.2c0-13.7,11.2-24.9,24.9-24.9h291.6c13.7,0,24.9,11.2,24.9,24.9v14.2
	C426.7,138.2,415.5,149.3,401.8,149.3z M110.2,106.7c-2,0-3.6,1.6-3.6,3.6v14.2c0,2,1.6,3.6,3.6,3.6h291.6c2,0,3.6-1.6,3.6-3.6
	v-14.2c0-2-1.6-3.6-3.6-3.6H110.2z"/>
<path d="M99.6,320h312.9v21.3H99.6V320z"/>
<path d="M245.3,334.2h21.3V416h-21.3V334.2z"/>
<path d="M307.9,422.3L256,352.2l-51.9,70.2L187,409.7l60.4-81.8c4-5.4,13.1-5.4,17.2,0l60.4,81.8L307.9,422.3z"/>
<path d="M28.4,405.3h455.1v21.3H28.4V405.3z"/>
<path d="M376.9,138.7h21.3v192h-21.3V138.7z"/>
<path d="M113.8,138.7h21.3v192h-21.3V138.7z"/>
</svg>
