<?xml version="1.0" encoding="utf-8"?>
<!-- Generator: Adobe Illustrator 25.2.1, SVG Export Plug-In . SVG Version: 6.00 Build 0)  -->
<svg version="1.1" id="LINE" xmlns="http://www.w3.org/2000/svg" xmlns:xlink="http://www.w3.org/1999/xlink" x="0px" y="0px"
	 viewBox="0 0 512 512" style="enable-background:new 0 0 512 512;" xml:space="preserve">
<style type="text/css">
	.st0{fill:#EFEFEF;}
	.st1{fill:#A4AFC1;}
	.st2{fill:#F3F3F1;}
	.st3{fill:#6154FA;}
	.st4{fill:#D5DBE1;}
	.st5{fill:#607DD8;}
</style>
<path class="st0" d="M115.4,79.1C89.7,174.1,22.9,226,10.5,271.8s-12,149,198.5,205.9s276.4-64,290-114.4
	C562.7,127.6,160.9-89.1,115.4,79.1L115.4,79.1z"/>
<g>
	<path class="st1" d="M371.2,198.9l10.1-10.1l20.1,20.1L391.3,219L371.2,198.9z"/>
	<path class="st1" d="M429,256.8l10.1-10.1l20.1,20.1l-10.1,10.1L429,256.8z"/>
	<path class="st1" d="M429,206.4l20.1-20.1l10.1,10.1l-20.1,20.1L429,206.4z"/>
	<path class="st1" d="M41.4,238.2c-11.8,0-21.3-9.6-21.3-21.3c0-11.8,9.6-21.3,21.3-21.3s21.3,9.6,21.3,21.3
		C62.7,228.7,53.2,238.2,41.4,238.2z M41.4,209.8c-3.9,0-7.1,3.2-7.1,7.1c0,3.9,3.2,7.1,7.1,7.1s7.1-3.2,7.1-7.1
		S45.3,209.8,41.4,209.8z"/>
</g>
<path class="st2" d="M330.7,188.4H218.4c-5.6,0-11.1,1.7-15.8,4.8l-35.5,23.7V110.2c0-7.9,6.4-14.2,14.2-14.2h149.3
	c7.9,0,14.2,6.4,14.2,14.2v64C344.9,182.1,338.5,188.4,330.7,188.4z"/>
<circle class="st3" cx="163.6" cy="284.4" r="32"/>
<path class="st3" d="M96,416v-21.3c0-15.7,12.7-28.4,28.4-28.4h78.2c15.7,0,28.4,12.7,28.4,28.4V416H96z"/>
<circle class="st3" cx="348.4" cy="284.4" r="32"/>
<path class="st3" d="M280.9,416v-21.3c0-15.7,12.7-28.4,28.4-28.4h78.2c15.7,0,28.4,12.7,28.4,28.4V416H280.9z"/>
<path class="st4" d="M195.6,110.2c0-7.9,6.4-14.2,14.2-14.2h-28.4c-7.9,0-14.2,6.4-14.2,14.2v106.7l28.4-19V110.2z"/>
<path class="st5" d="M152.9,366.2h-28.4c-15.7,0-28.4,12.7-28.4,28.4V416h28.4v-21.3C124.4,379,137.2,366.2,152.9,366.2z"/>
<path class="st5" d="M160,284.4c0-12.5,7.3-23.3,17.8-28.5c-4.3-2.1-9.1-3.5-14.2-3.5c-17.7,0-32,14.3-32,32s14.3,32,32,32
	c5.1,0,9.9-1.3,14.2-3.5C167.3,307.7,160,297,160,284.4z"/>
<path class="st5" d="M337.8,366.2h-28.4c-15.7,0-28.4,12.7-28.4,28.4V416h28.4v-21.3C309.3,379,322.1,366.2,337.8,366.2z"/>
<path class="st5" d="M344.9,284.4c0-12.5,7.3-23.3,17.8-28.5c-4.3-2.1-9.1-3.5-14.2-3.5c-17.7,0-32,14.3-32,32s14.3,32,32,32
	c5.1,0,9.9-1.3,14.2-3.5C352.2,307.7,344.9,297,344.9,284.4z"/>
<path d="M167.1,227.6c-1.7,0-3.5-0.4-5-1.3c-3.5-1.8-5.6-5.5-5.6-9.4V110.2c0-13.7,11.2-24.9,24.9-24.9h80.4v21.3h-80.4
	c-2,0-3.6,1.6-3.6,3.6V197l18.9-12.6c6.4-4.3,13.9-6.6,21.7-6.6h112.3c2,0,3.6-1.6,3.6-3.6v-64c0-2-1.6-3.6-3.6-3.6h-38.9V85.3h38.9
	c13.7,0,24.9,11.2,24.9,24.9v64c0,13.7-11.2,24.9-24.9,24.9H218.4c-3.5,0-6.9,1-9.9,3L173,225.8C171.2,227,169.2,227.6,167.1,227.6
	L167.1,227.6z"/>
<path d="M163.6,327.1c-23.5,0-42.7-19.1-42.7-42.7c0-23.5,19.1-42.7,42.7-42.7s42.7,19.1,42.7,42.7
	C206.2,308,187.1,327.1,163.6,327.1z M163.6,263.1c-11.8,0-21.3,9.6-21.3,21.3c0,11.8,9.6,21.3,21.3,21.3s21.3-9.6,21.3-21.3
	C184.9,272.7,175.3,263.1,163.6,263.1z"/>
<path d="M241.8,416h-21.3v-21.3c0-9.8-8-17.8-17.8-17.8h-78.2c-9.8,0-17.8,8-17.8,17.8V416H85.3v-21.3c0-21.6,17.5-39.1,39.1-39.1
	h78.2c21.6,0,39.1,17.5,39.1,39.1L241.8,416L241.8,416z"/>
<path d="M348.4,327.1c-23.5,0-42.7-19.1-42.7-42.7c0-23.5,19.1-42.7,42.7-42.7c23.5,0,42.7,19.1,42.7,42.7S372,327.1,348.4,327.1z
	 M348.4,263.1c-11.8,0-21.3,9.6-21.3,21.3c0,11.8,9.6,21.3,21.3,21.3c11.8,0,21.3-9.6,21.3-21.3
	C369.8,272.7,360.2,263.1,348.4,263.1z"/>
<path d="M426.7,416h-21.3v-21.3c0-9.8-8-17.8-17.8-17.8h-78.2c-9.8,0-17.8,8-17.8,17.8V416h-21.3v-21.3c0-21.6,17.5-39.1,39.1-39.1
	h78.2c21.6,0,39.1,17.5,39.1,39.1L426.7,416L426.7,416z"/>
</svg>
