<?xml version="1.0" encoding="utf-8"?>
<!-- Generator: Adobe Illustrator 25.2.1, SVG Export Plug-In . SVG Version: 6.00 Build 0)  -->
<svg version="1.1" id="line" xmlns="http://www.w3.org/2000/svg" xmlns:xlink="http://www.w3.org/1999/xlink" x="0px" y="0px"
	 viewBox="0 0 512 512" style="enable-background:new 0 0 512 512;" xml:space="preserve">
<style type="text/css">
	.st0{fill:#EFEFEF;}
	.st1{fill:#A4AFC1;}
	.st2{fill:#F3F3F1;}
	.st3{fill:#6154FA;}
	.st4{fill:#D5DBE1;}
	.st5{fill:#607DD8;}
</style>
<g>
	<path class="st0" d="M452.7,392.9c0-98.4,51-165.9,51-213.3s-27.2-147-245.3-147S8.3,166.5,8.3,218.6
		C8.3,462.8,452.7,567.1,452.7,392.9z"/>
</g>
<g>
	<g>
		<path class="st1" d="M369.6,399.9l10.1-10.1l20.1,20.1L389.7,420L369.6,399.9z"/>
	</g>
	<g>
		<path class="st1" d="M427.4,457.8l10.1-10.1l20.1,20.1l-10.1,10.1L427.4,457.8z"/>
	</g>
	<g>
		<path class="st1" d="M367.1,467.7l20.1-20.1l10.1,10.1l-20.1,20.1L367.1,467.7z"/>
	</g>
	<g>
		<path class="st1" d="M424.9,409.9l20.1-20.1l10.1,10.1l-20.1,20L424.9,409.9z"/>
	</g>
</g>
<g>
	<path class="st2" d="M296,403.3c-17,8.1-36,12.7-56,12.7c-71.2,0-128.9-57.3-128.9-128H240L296,403.3z"/>
</g>
<g>
	<path class="st3" d="M416,248.5c0,50.5-29.5,94-72.3,114.6L288,248.5V121.3C358.7,121.3,416,178.2,416,248.5z"/>
</g>
<g>
	<path class="st2" d="M224,96v128H96C96,153.3,153.3,96,224,96z"/>
</g>
<g>
	<path class="st4" d="M143.1,288h-32c0,70.7,57.7,128,128.9,128c5.5,0,10.9-0.4,16.1-1.1C192.5,407.2,143.1,353.4,143.1,288z"/>
</g>
<g>
	<path class="st4" d="M224,100.2V96c-70.7,0-128,57.3-128,128h32C128,164.3,168.8,114.4,224,100.2z"/>
</g>
<g>
	<path class="st5" d="M320,248.5v-123c-10.2-2.6-20.9-4.2-32-4.2v127.2l55.7,114.6c8.8-4.2,16.9-9.6,24.4-15.7L320,248.5z"/>
</g>
<g>
	<path d="M240,426.7c-76.9,0-139.5-62.2-139.5-138.7c0-5.9,4.8-10.7,10.7-10.7H240c4.1,0,7.8,2.3,9.6,6l56,115.3
		c1.2,2.6,1.4,5.5,0.5,8.2s-2.9,4.9-5.5,6.1C281.5,422.1,261.1,426.7,240,426.7L240,426.7z M122.3,298.7
		c5.4,59.7,56.2,106.7,117.7,106.7c14.3,0,28.2-2.5,41.5-7.4l-48.2-99.2h-111V298.7z"/>
</g>
<g>
	<path d="M343.7,373.8c-4,0-7.8-2.2-9.6-6l-55.7-114.6c-0.7-1.5-1.1-3-1.1-4.7V121.3c0-5.9,4.8-10.7,10.7-10.7
		c76.5,0,138.7,61.8,138.7,137.8c0,53.3-30,100.9-78.4,124.2C346.8,373.4,345.2,373.8,343.7,373.8L343.7,373.8z M298.7,246
		l49.7,102.4c35.4-21,56.9-58.4,56.9-100c0-60.7-46.9-110.7-106.7-116L298.7,246L298.7,246z"/>
</g>
<g>
	<path d="M224,234.7H96c-5.9,0-10.7-4.8-10.7-10.7c0-76.5,62.2-138.7,138.7-138.7c5.9,0,10.7,4.8,10.7,10.7v128
		C234.7,229.9,229.9,234.7,224,234.7z M107.2,213.3h106.2V107.2C157.1,112.2,112.2,157.1,107.2,213.3z"/>
</g>
</svg>
