<?xml version="1.0" encoding="utf-8"?>
<!-- Generator: Adobe Illustrator 25.2.1, SVG Export Plug-In . SVG Version: 6.00 Build 0)  -->
<svg version="1.1" id="Layer_1" xmlns="http://www.w3.org/2000/svg" xmlns:xlink="http://www.w3.org/1999/xlink" x="0px" y="0px"
	 viewBox="0 0 512 512" style="enable-background:new 0 0 512 512;" xml:space="preserve">
<style type="text/css">
	.st0{fill:#EFEFEF;}
	.st1{fill:#A4AFC1;}
	.st2{fill:#6154FA;}
	.st3{fill:#607DD8;}
</style>
<g id="Layer_2_1_">
	<g>
		<path class="st0" d="M496.4,290.2c-53.8-82.4-48.1-166.8-74-206.5S319.2-24.4,136.6,94.8S0.5,343.7,29,387.3
			C162.6,591.8,591.7,436,496.4,290.2z"/>
	</g>
</g>
<g id="color">
	<g>
		<g>
			<path class="st1" d="M108.5,123.5l10.1-10.1l20.1,20.1l-10.1,10.1L108.5,123.5z"/>
		</g>
		<g>
			<path class="st1" d="M50.7,65.6l10.1-10.1l20.1,20.1L70.8,85.7L50.7,65.6z"/>
		</g>
		<g>
			<path class="st1" d="M111.1,75.7l20.1-20.1l10.1,10.1l-20.1,20.1L111.1,75.7z"/>
		</g>
		<g>
			<path class="st1" d="M53.2,133.5l20.1-20.1l10.1,10.1l-20.1,20.1L53.2,133.5z"/>
		</g>
	</g>
	<g>
		<circle class="st2" cx="192" cy="320" r="98.8"/>
	</g>
	<g>
		<path class="st3" d="M128.8,320c0-48.5,35-88.7,81-97.1c-5.8-1.1-11.7-1.7-17.8-1.7c-54.6,0-98.8,44.2-98.8,98.8
			s44.2,98.8,98.8,98.8c6.1,0,12-0.6,17.8-1.7C163.7,408.7,128.8,368.5,128.8,320L128.8,320z"/>
	</g>
</g>
<g id="line">
	<g>
		<path d="M192,426.7c-58.8,0-106.7-47.8-106.7-106.7S133.2,213.3,192,213.3S298.7,261.2,298.7,320S250.8,426.7,192,426.7z
			 M192,234.7c-47.1,0-85.3,38.3-85.3,85.3s38.3,85.3,85.3,85.3s85.3-38.3,85.3-85.3S239,234.7,192,234.7z"/>
	</g>
	<g>
		<path d="M408.2,167.3l-52.7-55.8l-52.7,55.8l-15.5-14.6l60.4-64c4-4.3,11.5-4.3,15.5,0l60.4,64L408.2,167.3z"/>
	</g>
	<g>
		<path d="M280.9,426.7v-21.3c35.3,0,64-28.7,64-64V96h21.3v245.3C366.2,388.4,327.9,426.7,280.9,426.7z"/>
	</g>
	<g>
		<g>
			<path d="M197.4,369.8h-30.3v-21.3h30.3c4.9,0,8.8-4,8.8-8.8c0-5-4-9-8.8-9h-10.8c-16.6,0-30.2-13.5-30.2-30.2
				c0-16.8,13.5-30.3,30.2-30.3h30.3v21.3h-30.3c-4.9,0-8.8,4-8.8,8.8c0,5,4,9,8.8,9h10.8c16.6,0,30.2,13.5,30.2,30.2
				C227.6,356.3,214,369.8,197.4,369.8z"/>
		</g>
		<g>
			<path d="M181.3,259.6h21.3v21.3h-21.3V259.6z"/>
		</g>
		<g>
			<path d="M181.3,359.1h21.3v21.3h-21.3V359.1z"/>
		</g>
	</g>
</g>
</svg>
