<svg id="Layer_1" data-name="Layer 1" xmlns="http://www.w3.org/2000/svg" viewBox="0 0 1469.63 550.74"><defs><style>.cls-1{fill:#fff;}</style></defs><path class="cls-1" d="M105.15,427.83V354.08a136.54,136.54,0,0,0,42.27,25.24,132.21,132.21,0,0,0,46.07,8.41,99.37,99.37,0,0,0,23.82-2.53,55,55,0,0,0,17-7,30.14,30.14,0,0,0,10.18-10.6,27,27,0,0,0,3.35-13.25A29.26,29.26,0,0,0,242.47,337,58.67,58.67,0,0,0,227.82,323a152.52,152.52,0,0,0-22-12.44q-12.75-6-27.51-12.22-37.58-16.12-56-39.41t-18.45-56.23q0-25.82,10.06-44.37a87.09,87.09,0,0,1,27.4-30.54,121.19,121.19,0,0,1,40.14-17.63,200.68,200.68,0,0,1,48.31-5.65,281.3,281.3,0,0,1,44.39,3.12,170.19,170.19,0,0,1,35.67,9.56v68.91a107.77,107.77,0,0,0-17.55-10.14,137.61,137.61,0,0,0-19.57-7.26,145.41,145.41,0,0,0-20-4.26A137.76,137.76,0,0,0,233.75,163a95.37,95.37,0,0,0-22.37,2.43,56.26,56.26,0,0,0-17,6.8,33.14,33.14,0,0,0-10.73,10.48,25.38,25.38,0,0,0-3.8,13.71,26.71,26.71,0,0,0,4.25,14.87,49.25,49.25,0,0,0,12.07,12.44,126.66,126.66,0,0,0,19,11.53q11.19,5.65,25.27,11.64A279.26,279.26,0,0,1,275,264.54a123.11,123.11,0,0,1,26.27,21.09,82.46,82.46,0,0,1,16.78,26.85q5.81,15.09,5.81,35.15,0,27.64-10.17,46.44a84.23,84.23,0,0,1-27.62,30.42q-17.44,11.64-40.59,16.71a228,228,0,0,1-48.87,5.07,264.12,264.12,0,0,1-50.21-4.61Q122.59,437.05,105.15,427.83Z"/><path class="cls-1" d="M601.86,165.09H510.39l.22,281.18H438.15l-.22-281.18h-91V104.47h255Z"/><polygon class="cls-1" points="717.27 385.87 717.27 322.24 822.16 322.24 822.16 264.81 645.01 264.85 645.01 446.27 837.34 446.27 837.34 385.87 717.27 385.87"/><path class="cls-1" d="M993.67,104.47H645V165.1H981.16c38.46,0,57.69,13.51,57.69,47.47,0,33.07-19.23,52.08-57.69,52.08H880.51V446.27h72.26V321.12h34.42q58.14,0,92.94-30.76t34.76-80.58C1114.89,137.73,1074.48,104.47,993.67,104.47Z"/><path class="cls-1" d="M1147.1,427.83V354.08a136.54,136.54,0,0,0,42.27,25.24,132.21,132.21,0,0,0,46.07,8.41,99.22,99.22,0,0,0,23.81-2.53,55,55,0,0,0,17-7,30.14,30.14,0,0,0,10.18-10.6,27.12,27.12,0,0,0,3.35-13.25,29.2,29.2,0,0,0-5.37-17.28A58.44,58.44,0,0,0,1269.77,323a152.52,152.52,0,0,0-22-12.44q-12.75-6-27.51-12.22-37.57-16.12-56-39.41t-18.45-56.23q0-25.82,10.06-44.37a87.09,87.09,0,0,1,27.4-30.54,121.19,121.19,0,0,1,40.14-17.63,200.68,200.68,0,0,1,48.31-5.65,281.39,281.39,0,0,1,44.39,3.12,170.35,170.35,0,0,1,35.67,9.56v68.91a108.2,108.2,0,0,0-17.55-10.14,137.61,137.61,0,0,0-19.57-7.26,145.41,145.41,0,0,0-20-4.26,137.91,137.91,0,0,0-18.9-1.39,95.34,95.34,0,0,0-22.36,2.43,56.26,56.26,0,0,0-17,6.8,33.14,33.14,0,0,0-10.73,10.48,25.38,25.38,0,0,0-3.8,13.71A26.78,26.78,0,0,0,1226,211.3a49.31,49.31,0,0,0,12.08,12.44,126.66,126.66,0,0,0,19,11.53q11.17,5.65,25.27,11.64A279.26,279.26,0,0,1,1317,264.54a123.36,123.36,0,0,1,26.27,21.09A82.46,82.46,0,0,1,1360,312.48q5.81,15.09,5.81,35.15,0,27.64-10.18,46.44A84.21,84.21,0,0,1,1328,424.49q-17.44,11.64-40.6,16.71a227.88,227.88,0,0,1-48.86,5.07,264.12,264.12,0,0,1-50.21-4.61Q1164.54,437.05,1147.1,427.83Z"/></svg>