<?xml version="1.0" encoding="utf-8"?>
<!-- Generator: Adobe Illustrator 25.2.1, SVG Export Plug-In . SVG Version: 6.00 Build 0)  -->
<svg version="1.1" id="Layer_1" xmlns="http://www.w3.org/2000/svg" xmlns:xlink="http://www.w3.org/1999/xlink" x="0px" y="0px"
	 viewBox="0 0 512 512" style="enable-background:new 0 0 512 512;" xml:space="preserve">
<style type="text/css">
	.st0{fill:#EFEFEF;}
	.st1{fill:#6154FA;}
	.st2{fill:#F3F3F1;}
	.st3{fill:#607DD8;}
	.st4{fill:#D5DBE1;}
	.st5{fill:#A4AFC1;}
</style>
<g id="Layer_2_1_">
	<g>
		<path class="st0" d="M496.8,293.5C444.3,210.3,451.3,126,426,85.9c-25.4-40-101.6-109.7-286,6.8S0.1,339.4,27.9,383.5
			C158.3,590,589.8,440.8,496.8,293.5z"/>
	</g>
</g>
<g id="color">
	<g>
		<path class="st1" d="M266.4,96c-11.8,0-21.3,9.5-21.3,21.3c0,7.8-6.4,14.2-14.2,14.2h-64c-7.8,0-14.2-6.4-14.2-14.2
			c0-11.8-9.5-21.3-21.3-21.3H266.4z"/>
	</g>
	<g>
		<path class="st2" d="M302,124.4v263.1c0,15.6-12.8,28.4-28.4,28.4H124.2c-15.6,0-28.4-12.8-28.4-28.4V124.4
			c0-15.6,12.8-28.4,28.4-28.4h7.1c11.8,0,21.3,9.5,21.3,21.3c0,7.8,6.4,14.2,14.2,14.2h64c7.8,0,14.2-6.4,14.2-14.2
			c0-11.8,9.5-21.3,21.3-21.3h7.1C289.2,96,302,108.8,302,124.4z"/>
	</g>
	<g>
		<path class="st3" d="M184.7,117.3c0-11.8-9.5-21.3-21.3-21.3h-32c11.8,0,21.3,9.5,21.3,21.3c0,7.8,6.4,14.2,14.2,14.2h32
			C191.1,131.6,184.7,125.2,184.7,117.3z"/>
	</g>
	<g>
		<g>
			<path class="st4" d="M127.8,387.6V124.4c0-10.8,6.2-20.2,15.2-25c-3.3-2.2-7.3-3.5-11.6-3.5h-7.1c-15.6,0-28.4,12.8-28.4,28.4
				v263.1c0,15.6,12.8,28.4,28.4,28.4h32C140.6,416,127.8,403.2,127.8,387.6z"/>
		</g>
	</g>
	<g>
		<g>
			<path class="st5" d="M442.6,90.7H471v14.2h-28.4V90.7z"/>
		</g>
		<g>
			<path class="st5" d="M360.8,90.7h28.4v14.2h-28.4V90.7z"/>
		</g>
		<g>
			<path class="st5" d="M410.6,40.9h14.2v28.4h-14.2V40.9z"/>
		</g>
		<g>
			<path class="st5" d="M410.6,122.7h14.2v28.4h-14.2V122.7z"/>
		</g>
	</g>
	<g>
		<path class="st5" d="M442.3,384c-11.8,0-21.3-9.6-21.3-21.3c0-11.8,9.6-21.3,21.3-21.3s21.3,9.6,21.3,21.3
			C463.6,374.4,454.1,384,442.3,384L442.3,384z M442.3,355.6c-3.9,0-7.1,3.2-7.1,7.1s3.2,7.1,7.1,7.1s7.1-3.2,7.1-7.1
			C449.4,358.7,446.2,355.6,442.3,355.6z"/>
	</g>
	<g>
		<path class="st1" d="M416,209.8v28.4H238.2v-28.4c0-7.8,6.4-14.2,14.2-14.2h149.3C409.7,195.6,416,202,416,209.8z"/>
	</g>
	<g>
		<path class="st2" d="M416,238.2v64c0,7.8-6.3,14.2-14.2,14.2H252.4c-7.8,0-14.2-6.4-14.2-14.2v-64L416,238.2L416,238.2z"/>
	</g>
	<g>
		<path class="st3" d="M284.4,195.6h-32c-7.8,0-14.2,6.4-14.2,14.2v28.4h32v-28.4C270.2,202,276.6,195.6,284.4,195.6z"/>
	</g>
	<g>
		<path class="st4" d="M270.2,302.2v-64h-32v64c0,7.8,6.4,14.2,14.2,14.2h32C276.6,316.4,270.2,310,270.2,302.2z"/>
	</g>
</g>
<g id="line">
	<g>
		<path d="M401.8,327.1H252.4c-13.7,0-24.9-11.2-24.9-24.9v-92.4c0-13.7,11.2-24.9,24.9-24.9h149.3c13.7,0,24.9,11.2,24.9,24.9v92.4
			C426.7,315.9,415.5,327.1,401.8,327.1z M252.4,206.2c-2,0-3.6,1.6-3.6,3.6v92.4c0,2,1.6,3.6,3.6,3.6h149.3c2,0,3.6-1.6,3.6-3.6
			v-92.4c0-2-1.6-3.6-3.6-3.6L252.4,206.2L252.4,206.2z"/>
	</g>
	<g>
		<path d="M238.2,227.6H416v21.3H238.2V227.6z"/>
	</g>
	<g>
		<g>
			<path d="M231.1,142.2h-64c-13.7,0-24.9-11.2-24.9-24.9c0-5.9-4.8-10.7-10.7-10.7h-7.1V85.3h7.1c17.6,0,32,14.4,32,32
				c0,2,1.6,3.6,3.6,3.6h64c2,0,3.6-1.6,3.6-3.6c0-17.6,14.4-32,32-32h7.1v21.3h-7.1c-5.9,0-10.7,4.8-10.7,10.7
				C256,131.1,244.8,142.2,231.1,142.2z"/>
		</g>
		<g>
			<path d="M273.8,426.7H124.4c-21.6,0-39.1-17.5-39.1-39.1V124.4c0-21.6,17.6-39.1,39.1-39.1h149.3c21.6,0,39.1,17.5,39.1,39.1
				v21.3h-21.3v-21.3c0-9.8-8-17.8-17.8-17.8H124.4c-9.8,0-17.8,8-17.8,17.8v263.1c0,9.8,8,17.8,17.8,17.8h149.3
				c9.8,0,17.8-8,17.8-17.8v-21.3h21.3v21.3C312.9,409.1,295.4,426.7,273.8,426.7z"/>
		</g>
	</g>
</g>
</svg>
