<?xml version="1.0" encoding="utf-8"?>
<!-- Generator: Adobe Illustrator 25.2.1, SVG Export Plug-In . SVG Version: 6.00 Build 0)  -->
<svg version="1.1" id="_x31__x2C_5" xmlns="http://www.w3.org/2000/svg" xmlns:xlink="http://www.w3.org/1999/xlink" x="0px"
	 y="0px" viewBox="0 0 512 512" style="enable-background:new 0 0 512 512;" xml:space="preserve">
<style type="text/css">
	.st0{fill:#EFEFEF;}
	.st1{fill:#A4AFC1;}
	.st2{fill:#F3F3F1;}
	.st3{fill:#6154FA;}
	.st4{fill:#6580E7;}
	.st5{fill:#607DD8;}
	.st6{fill:#D5DBE1;}
</style>
<g>
	<path class="st0" d="M59.3,392.9c0-98.4-51-165.9-51-213.3s27.2-147,245.3-147s250.1,133.9,250.1,186.1
		C503.7,462.8,59.3,567.1,59.3,392.9z"/>
</g>
<g>
	<path class="st1" d="M35.6,227.6c-11.8,0-21.3-9.6-21.3-21.3c0-11.8,9.6-21.3,21.3-21.3s21.3,9.6,21.3,21.3
		C56.9,218,47.3,227.6,35.6,227.6z M35.6,199.1c-3.9,0-7.1,3.2-7.1,7.1c0,3.9,3.2,7.1,7.1,7.1s7.1-3.2,7.1-7.1
		C42.7,202.3,39.5,199.1,35.6,199.1z"/>
</g>
<g>
	<path class="st2" d="M387.6,401.8H124.4c-15.7,0-28.4-12.7-28.4-28.4V160h320v213.3C416,389,403.3,401.8,387.6,401.8z"/>
</g>
<g>
	<path class="st3" d="M416,160H96v-21.3c0-15.7,12.7-28.4,28.4-28.4h263.1c15.7,0,28.4,12.7,28.4,28.4V160H416z"/>
</g>
<g>
	<path class="st3" d="M244.8,359.1h-91.9c-7.8,0-14.2-6.4-14.2-14.2V224c0-7.8,6.4-14.2,14.2-14.2h92.4c7.9,0,14.2,6.4,14.2,14.2
		L259,344.9C259,352.8,252.7,359.1,244.8,359.1z"/>
</g>
<g>
	<path class="st4" d="M138.7,324.8l25.6-25.6c6.3-6.3,16-5.3,22.5,0.8c3.1,2.9,7.1,4.4,11,4.4c4.7,0,9.4-2,12.5-6l9.7-12.1
		c5.7-7.3,16.5-7.3,22.2,0l17.4,21.6v37c0,7.9-6.4,14.2-14.2,14.2H153c-7.9,0-14.2-6.4-14.2-14.2v-20.1H138.7z"/>
</g>
<g>
	<path class="st3" d="M405.4,314l-0.1-0.1l-38.4-38.4c-5.3-5.3-13.9-5.3-19.2,0c-5.3,5.3-5.3,13.9,0,19.2L334.8,282
		c-5.3-5.3-13.9-5.3-19.2,0c-5.3,5.3-5.3,13.9,0,19.2l-6.4-6.4c-5.3-5.3-13.9-5.3-19.2,0s-5.3,13.9,0,19.2l-38.4-38.4
		c-5.3-5.3-13.9-5.3-19.2,0s-5.3,13.9,0,19.2l73.6,73.6c0,0-29.6-8.8-44.9,6.5c-9.6,9.6-9.4,16.3-6.5,19.2
		c8.1,8.1,14.4-4.8,51.3,12.7s60.6,15.9,77-0.1l16.1-16.1c0.1-0.1-0.1,0.1,0,0C421.6,368,428.2,336.8,405.4,314L405.4,314z"/>
</g>
<g>
	<path class="st5" d="M170.7,344.9V224c0-7.8,6.4-14.2,14.2-14.2h-32c-7.8,0-14.2,6.4-14.2,14.2v120.9c0,7.8,6.4,14.2,14.2,14.2h32
		C177.1,359.1,170.7,352.7,170.7,344.9z"/>
</g>
<g>
	<path class="st5" d="M170.7,344.9v-20.1l21.5-21.5c-1.9-0.7-3.8-1.8-5.4-3.3c-6.5-6.1-16.2-7.1-22.6-0.8l-25.6,25.6v20.1
		c0,7.9,6.4,14.2,14.2,14.2h32C177,359.1,170.7,352.7,170.7,344.9L170.7,344.9z"/>
</g>
<g>
	<path class="st5" d="M337.7,407c-36.9-17.5-43.2-4.6-51.3-12.7c-3-3-3.2-9.6,6.5-19.2c3.4-3.4,7.5-5.4,11.8-6.8
		c-5.3-1.4-30.1-6.8-43.8,6.8c-9.6,9.6-9.4,16.3-6.5,19.2c8.1,8.1,14.4-4.8,51.3,12.7c25.7,12.2,45,14.9,59.9,10.1
		C357.2,415.2,348,411.9,337.7,407z"/>
</g>
<g>
	<path class="st5" d="M337.8,368.6L264.2,295c-2.9-2.9-4-6.6-3.8-10.4l-8.9-8.9c-5.3-5.3-13.9-5.3-19.2,0s-5.3,13.9,0,19.2
		l73.1,73.1C320.3,363.5,337.8,368.6,337.8,368.6L337.8,368.6z"/>
</g>
<g>
	<path class="st6" d="M131.6,373.3V160H96v213.3c0,15.7,12.7,28.4,28.4,28.4H160C144.3,401.8,131.6,389,131.6,373.3z"/>
</g>
<g>
	<path class="st5" d="M156.4,110.2h-32c-15.7,0-28.4,12.7-28.4,28.4V160h32v-21.3C128,123,140.7,110.2,156.4,110.2z"/>
</g>
<g>
	<path d="M142.8,335.8l-15.1-15.1l28.6-28.6c10.1-10.1,27.6-10.1,37.7,0l7.5,7.5l-15.1,15.1l-7.5-7.5c-2.1-2.1-5.4-2.1-7.5,0
		L142.8,335.8z"/>
</g>
<g>
	<path d="M219.9,369.8h-67c-13.7,0-24.9-11.2-24.9-24.9V224c0-13.7,11.2-24.9,24.9-24.9h92.4c13.7,0,24.9,11.2,24.9,24.9v17.8h-21.3
		V224c0-2-1.6-3.6-3.6-3.6h-92.4c-1.9,0-3.6,1.6-3.6,3.6v120.9c0,1.9,1.6,3.6,3.6,3.6h67L219.9,369.8L219.9,369.8z"/>
</g>
<g>
	<path d="M213.3,412.4h-88.9c-21.6,0-39.1-17.5-39.1-39.1V138.7c0-21.6,17.5-39.1,39.1-39.1h263.1c21.6,0,39.1,17.5,39.1,39.1v131.6
		h-21.3V138.7c0-9.8-8-17.8-17.8-17.8H124.4c-9.8,0-17.8,8-17.8,17.8v234.7c0,9.8,8,17.8,17.8,17.8h88.9L213.3,412.4L213.3,412.4z"
		/>
</g>
<g>
	<path d="M96,149.3h320v21.3H96V149.3z"/>
</g>
<g>
	<path d="M351.1,430.2c-14.4,0-31-4.5-49.9-13.5c-19.8-9.4-29.1-9-35.4-8.8c-5.5,0.2-12.3,0.5-18.9-6c-4.3-4.3-5.9-10.6-4.3-17.2
		c1.3-5.6,5-11.4,10.8-17.2c7.1-7.1,16.1-10.3,24.8-11.5l-53.5-53.5c-9.5-9.4-9.4-24.8,0-34.3c4.6-4.6,10.7-7.1,17.2-7.1l0,0
		c6.5,0,12.6,2.5,17.1,7.1l21.4,21.4c0.6-0.8,1.3-1.5,2-2.2c5.8-5.8,13.7-8,21.2-6.8c1.1-2.2,2.6-4.3,4.4-6.1c8-8,20.4-9.3,29.7-3.7
		c0.7-1,1.5-1.9,2.4-2.8l0,0c4.6-4.6,10.7-7.1,17.1-7.1h0.1c6.5,0,12.6,2.5,17.1,7.1l38.4,38.4c25.6,25.6,22.9,62.4-6.4,91.8
		c-0.1,0.1-0.3,0.3-0.4,0.4l-15.9,15.9C379.5,424.9,366.6,430.2,351.1,430.2L351.1,430.2z M269.5,386.5c8.1,0,20.5,1.3,40.7,10.9
		c40.4,19.2,56.4,10.3,64.9,1.9l16-16c0.1-0.1,0.2-0.2,0.3-0.3c15.8-16.3,26.4-41.4,6.4-61.4L359.3,283c-1-1-3.2-0.9-4.2,0.1
		c-1.2,1.2-1.2,3,0,4.1l9.6,9.6c2.1,2.1,3.1,4.8,3.1,7.5s-1,5.5-3.1,7.5c-4.2,4.2-10.9,4.2-15.1,0l-22.4-22.4c-1.1-1.1-3-1.1-4.2,0
		c-1.2,1.2-1.2,3,0,4.2l16,16c2.1,2.1,3.1,4.8,3.1,7.5s-1,5.5-3.1,7.5c-4.2,4.2-10.9,4.2-15.1,0l-22.4-22.4c-1.1-1.1-3-1.1-4.2,0.1
		c-0.8,0.8-0.9,1.6-0.9,2.1s0.2,1.4,0.8,2l16,16c2.1,2.1,3.1,4.8,3.1,7.5s-1,5.5-3.1,7.5c-4.2,4.2-10.9,4.2-15.1,0l-16-16l0,0
		L243.7,283c-0.7-0.7-1.5-0.9-2-0.9s-1.4,0.2-2.1,0.9c-1.2,1.2-1.2,3,0,4.2l73.6,73.6c3.5,3.5,4.1,8.8,1.6,13s-7.6,6.2-12.2,4.8
		c-6.6-1.9-25.5-4.9-34.3,3.8c-1.6,1.6-2.7,2.9-3.5,4C266.3,386.5,267.8,386.5,269.5,386.5L269.5,386.5z"/>
</g>
</svg>
