<?xml version="1.0" encoding="utf-8"?>
<!-- Generator: Adobe Illustrator 25.2.1, SVG Export Plug-In . SVG Version: 6.00 Build 0)  -->
<svg version="1.1" id="line" xmlns="http://www.w3.org/2000/svg" xmlns:xlink="http://www.w3.org/1999/xlink" x="0px" y="0px"
	 viewBox="0 0 512 512" style="enable-background:new 0 0 512 512;" xml:space="preserve">
<style type="text/css">
	.st0{fill:#EFEFEF;}
	.st1{fill:#A4AFC1;}
	.st2{fill:#F3F3F1;}
	.st3{fill:#6154FA;}
	.st4{fill:#D5DBE1;}
	.st5{fill:#607DD8;}
</style>
<g>
	<path class="st0" d="M392.9,452.7c-98.4,0-165.9,51-213.3,51s-147-27.2-147-245.3S166.5,8.3,218.6,8.3
		C462.8,8.3,567.1,452.7,392.9,452.7z"/>
</g>
<g>
	<path class="st1" d="M405.3,85.3c-11.8,0-21.3-9.6-21.3-21.3s9.6-21.3,21.3-21.3s21.3,9.6,21.3,21.3S417.1,85.3,405.3,85.3z
		 M405.3,56.9c-3.9,0-7.1,3.2-7.1,7.1s3.2,7.1,7.1,7.1s7.1-3.2,7.1-7.1S409.3,56.9,405.3,56.9z"/>
</g>
<g>
	<path class="st2" d="M174.2,416h-64V302.2c0-3.9,3.2-7.1,7.1-7.1h49.8c3.9,0,7.1,3.2,7.1,7.1V416z"/>
</g>
<g>
	<path class="st3" d="M288,416h-64V245.3c0-3.9,3.2-7.1,7.1-7.1h49.8c3.9,0,7.1,3.2,7.1,7.1V416z"/>
</g>
<g>
	<path class="st3" d="M401.8,416h-64V188.4c0-3.9,3.2-7.1,7.1-7.1h49.8c3.9,0,7.1,3.2,7.1,7.1V416z"/>
</g>
<g>
	<path class="st4" d="M149.3,295.1h-32c-3.9,0-7.1,3.2-7.1,7.1V416h32V302.2C142.2,298.3,145.4,295.1,149.3,295.1z"/>
</g>
<g>
	<path class="st5" d="M263.1,238.2h-32c-3.9,0-7.1,3.2-7.1,7.1V416h32V245.3C256,241.4,259.2,238.2,263.1,238.2z"/>
</g>
<g>
	<path class="st5" d="M376.9,181.3h-32c-3.9,0-7.1,3.2-7.1,7.1V416h32V188.4C369.8,184.5,373,181.3,376.9,181.3z"/>
</g>
<g>
	<path d="M116.9,223.6l120.9-120.9l15.1,15.1L132,238.6L116.9,223.6z"/>
</g>
<g>
	<path d="M256,170.7h-21.3v-49.8h-49.8V99.6h60.4c5.9,0,10.7,4.8,10.7,10.7L256,170.7L256,170.7z"/>
</g>
<g>
	<path d="M28.4,405.3h455.1v21.3H28.4V405.3z"/>
</g>
<g>
	<path d="M174.2,426.7h-64c-5.9,0-10.7-4.8-10.7-10.7V302.2c0-9.8,8-17.8,17.8-17.8h49.8c9.8,0,17.8,8,17.8,17.8V416
		C184.9,421.9,180.1,426.7,174.2,426.7z M120.9,405.3h42.7v-99.6h-42.7C120.9,305.7,120.9,405.3,120.9,405.3z"/>
</g>
<g>
	<path d="M288,426.7h-64c-5.9,0-10.7-4.8-10.7-10.7V245.3c0-9.8,8-17.8,17.8-17.8h49.8c9.8,0,17.8,8,17.8,17.8V416
		C298.7,421.9,293.9,426.7,288,426.7z M234.7,405.3h42.7V248.9h-42.7V405.3z"/>
</g>
<g>
	<path d="M401.8,426.7h-64c-5.9,0-10.7-4.8-10.7-10.7V188.4c0-9.8,8-17.8,17.8-17.8h49.8c9.8,0,17.8,8,17.8,17.8V416
		C412.4,421.9,407.7,426.7,401.8,426.7z M348.4,405.3h42.7V192h-42.7V405.3z"/>
</g>
</svg>
