<?xml version="1.0" encoding="utf-8"?>
<!-- Generator: Adobe Illustrator 25.2.1, SVG Export Plug-In . SVG Version: 6.00 Build 0)  -->
<svg version="1.1" id="_x31__x2C_5" xmlns="http://www.w3.org/2000/svg" xmlns:xlink="http://www.w3.org/1999/xlink" x="0px"
	 y="0px" viewBox="0 0 512 512" style="enable-background:new 0 0 512 512;" xml:space="preserve">
<style type="text/css">
	.st0{fill:#F3F3F1;}
	.st1{fill:#A4AFC1;}
	.st2{fill:#6154FA;}
	.st3{fill:#EFEFEF;}
	.st4{fill:#607DD8;}
	.st5{fill:#D5DBE1;}
</style>
<path class="st0" d="M119.1,452.7c98.4,0,165.9,51,213.3,51s147-27.2,147-245.3S345.5,8.3,293.4,8.3
	C49.2,8.3-55.1,452.7,119.1,452.7L119.1,452.7z"/>
<path class="st1" d="M64,114.2c-11.8,0-21.3-9.6-21.3-21.3S52.2,71.6,64,71.6s21.3,9.6,21.3,21.3S75.8,114.2,64,114.2z M64,85.8
	c-3.9,0-7.1,3.2-7.1,7.1s3.2,7.1,7.1,7.1s7.1-3.2,7.1-7.1S67.9,85.8,64,85.8z"/>
<path class="st2" d="M416,323.6v35.6c0,7.8-6.4,14.2-14.2,14.2H110.2c-7.8,0-14.2-6.4-14.2-14.2v-35.6H416z"/>
<path class="st3" d="M416,167.1v156.4H96V167.1c0-7.8,6.4-14.2,14.2-14.2h291.6C409.6,152.9,416,159.3,416,167.1z"/>
<path class="st3" d="M301.9,416h-92.2c17.8-17.8,21-42.7,21-42.7h50.1C280.9,373.3,284.3,398.4,301.9,416z"/>
<path class="st4" d="M128,359.1v-35.6H96v35.6c0,7.8,6.4,14.2,14.2,14.2h32C134.4,373.3,128,366.9,128,359.1z"/>
<path class="st5" d="M142.2,152.9h-32c-7.8,0-14.2,6.4-14.2,14.2v156.4h32V167.1C128,159.3,134.4,152.9,142.2,152.9z"/>
<path class="st5" d="M230.8,373.3c0,0-3.3,24.9-21,42.7h32c17.8-17.8,21-42.7,21-42.7H230.8z"/>
<path d="M401.8,384H110.2c-13.7,0-24.9-11.2-24.9-24.9v-192c0-13.7,11.2-24.9,24.9-24.9h291.6c13.7,0,24.9,11.2,24.9,24.9v192
	C426.7,372.8,415.5,384,401.8,384z M110.2,163.6c-2,0-3.6,1.6-3.6,3.6v192c0,2,1.6,3.6,3.6,3.6h291.6c2,0,3.6-1.6,3.6-3.6v-192
	c0-2-1.6-3.6-3.6-3.6H110.2z"/>
<path d="M416,334.2H96c-5.9,0-10.7-4.8-10.7-10.7c0-5.9,4.8-10.7,10.7-10.7h320c5.9,0,10.7,4.8,10.7,10.7
	C426.7,329.4,421.9,334.2,416,334.2z"/>
<path d="M302.2,426.7h-92.4c-4.3,0-8.2-2.6-9.9-6.6s-0.7-8.6,2.3-11.6c14.8-14.8,18-36.3,18-36.5c0.8-5.8,6.1-9.9,12-9.2
	c5.8,0.8,10,6.1,9.2,12c-0.1,0.8-2.1,15.2-10.6,30.6h50.1c-8.4-15.4-10.5-29.7-10.6-30.5c-0.8-5.8,3.3-11.2,9.1-12
	c5.9-0.8,11.2,3.3,12,9.1c0.1,0.6,3.3,20.9,16.8,35.4c2.8,1.9,4.6,5.1,4.6,8.8C312.9,421.9,308.1,426.7,302.2,426.7L302.2,426.7z"/>
<path d="M302.2,277.3c-2.5,0-4.9-0.8-6.9-2.6c-4.5-3.8-5-10.6-1.2-15l15.4-17.9l-15.4-17.9c-3.8-4.5-3.3-11.2,1.2-15
	s11.2-3.3,15,1.2l21.3,24.9c3.4,4,3.4,9.9,0,13.9l-21.3,24.9C308.2,276.1,305.2,277.3,302.2,277.3L302.2,277.3z"/>
<path d="M209.8,277.3c-3,0-6-1.3-8.1-3.7l-21.3-24.9c-3.4-4-3.4-9.9,0-13.9l21.3-24.9c3.8-4.5,10.6-5,15-1.2c4.5,3.8,5,10.6,1.2,15
	l-15.4,17.9l15.4,17.9c3.8,4.5,3.3,11.2-1.2,15C214.7,276.5,212.2,277.3,209.8,277.3L209.8,277.3z"/>
<path d="M245.3,298.7c-0.8,0-1.6-0.1-2.4-0.3c-5.7-1.3-9.3-7.1-8-12.8l21.3-92.4c1.3-5.7,7.1-9.3,12.8-8c5.7,1.3,9.3,7.1,8,12.8
	l-21.3,92.4C254.6,295.3,250.2,298.7,245.3,298.7L245.3,298.7z"/>
</svg>
