<?xml version="1.0" encoding="utf-8"?>
<!-- Generator: Adobe Illustrator 25.2.1, SVG Export Plug-In . SVG Version: 6.00 Build 0)  -->
<svg version="1.1" id="line" xmlns="http://www.w3.org/2000/svg" xmlns:xlink="http://www.w3.org/1999/xlink" x="0px" y="0px"
	 viewBox="0 0 512 512" style="enable-background:new 0 0 512 512;" xml:space="preserve">
<style type="text/css">
	.st0{fill:#EFEFEF;}
	.st1{fill:#A4AFC1;}
	.st2{fill:#F3F3F1;}
	.st3{fill:#6154FA;}
	.st4{fill:#607DD8;}
	.st5{fill:#D5DBE1;}
</style>
<path class="st0" d="M392.9,452.7c-98.4,0-165.9,51-213.3,51s-147-27.2-147-245.3S166.5,8.3,218.6,8.3
	C462.8,8.3,567.1,452.7,392.9,452.7z"/>
<g>
	<path class="st1" d="M355.4,147.7l20.1-20.1l10.1,10.1l-20.1,20.1L355.4,147.7z"/>
	<path class="st1" d="M413.3,89.9l20.1-20.1l10.1,10.1L423.3,100L413.3,89.9z"/>
	<path class="st1" d="M352.9,79.8L363,69.7l20.1,20.1L373,99.9L352.9,79.8z"/>
	<path class="st1" d="M410.7,137.6l10.1-10.1l20.1,20.1l-10.1,10.1L410.7,137.6z"/>
</g>
<path class="st2" d="M280.9,416H110.2c-7.9,0-14.2-6.4-14.2-14.2v-289c0-8.8,7.9-15.5,16.6-14L269,122.5c6.9,1.1,11.9,7.1,11.9,14
	V416z"/>
<path class="st3" d="M401.8,416H280.9V224l124,26c6.5,1.5,11.1,7.2,11.1,13.9v137.9C416,409.6,409.6,416,401.8,416z"/>
<path class="st3" d="M224,412.4h-64V352c0-7.9,6.4-14.2,14.2-14.2h35.6c7.9,0,14.2,6.4,14.2,14.2L224,412.4L224,412.4z"/>
<path class="st4" d="M280.9,224v192h32V230.7L280.9,224z"/>
<path class="st4" d="M206.2,337.8h-32c-7.9,0-14.2,6.4-14.2,14.2v60.4h32V352C192,344.1,198.4,337.8,206.2,337.8z"/>
<path class="st5" d="M128,401.8v-289c0-4.4,2-8.3,5.1-10.9l-20.6-3.1c-8.7-1.5-16.6,5.2-16.6,14v289c0,7.9,6.4,14.2,14.2,14.2h32
	C134.4,416,128,409.6,128,401.8z"/>
<path d="M280.9,426.7H110.2c-13.7,0-24.9-11.2-24.9-24.9v-289c0-7.3,3.2-14.3,8.8-19c5.6-4.7,12.9-6.8,20.2-5.6l156.3,23.7
	c12.2,2,21,12.4,21,24.6V416C291.6,421.9,286.8,426.7,280.9,426.7z M110.2,109.2c-1.2,0-1.9,0.5-2.3,0.8c-0.5,0.4-1.3,1.3-1.3,2.7
	v289c0,2,1.6,3.6,3.6,3.6h160V136.5c0-1.7-1.3-3.2-3-3.5L111,109.3C110.7,109.3,110.5,109.2,110.2,109.2z"/>
<path d="M401.8,426.7H280.9c-5.9,0-10.7-4.8-10.7-10.7V224c0-3.2,1.5-6.3,3.9-8.3c2.5-2,5.7-2.8,8.9-2.2l124,26
	c11.6,2.6,19.6,12.6,19.6,24.3v137.9C426.7,415.5,415.5,426.7,401.8,426.7L401.8,426.7z M291.6,405.3h110.2c2,0,3.6-1.6,3.6-3.6
	V263.9c0-1.7-1.1-3.1-2.8-3.5l-111-23.3V405.3z"/>
<path d="M224,423.1h-64c-5.9,0-10.7-4.8-10.7-10.7V352c0-13.7,11.2-24.9,24.9-24.9h35.6c13.7,0,24.9,11.2,24.9,24.9v60.4
	C234.7,418.3,229.9,423.1,224,423.1z M170.7,401.8h42.7V352c0-2-1.6-3.6-3.6-3.6h-35.6c-2,0-3.6,1.6-3.6,3.6v49.8H170.7z"/>
<path d="M135.1,149.3h42.7v21.3h-42.7V149.3z"/>
<path d="M206.2,149.3h42.7v21.3h-42.7V149.3z"/>
<path d="M135.1,192h42.7v21.3h-42.7V192z"/>
<path d="M206.2,192h42.7v21.3h-42.7V192z"/>
<path d="M135.1,234.7h42.7V256h-42.7V234.7z"/>
<path d="M206.2,234.7h42.7V256h-42.7V234.7z"/>
<path d="M135.1,277.3h42.7v21.3h-42.7V277.3z"/>
<path d="M206.2,277.3h42.7v21.3h-42.7V277.3z"/>
<path d="M327.1,277.3h42.7v21.3h-42.7V277.3z"/>
<path d="M327.1,320h42.7v21.3h-42.7V320z"/>
<path d="M327.1,362.7h42.7V384h-42.7V362.7z"/>
<path d="M28.4,405.3h455.1v21.3H28.4V405.3z"/>
</svg>
