<?xml version="1.0" encoding="utf-8"?>
<!-- Generator: Adobe Illustrator 25.2.1, SVG Export Plug-In . SVG Version: 6.00 Build 0)  -->
<svg version="1.1" id="LINE" xmlns="http://www.w3.org/2000/svg" xmlns:xlink="http://www.w3.org/1999/xlink" x="0px" y="0px"
	 viewBox="0 0 512 512" style="enable-background:new 0 0 512 512;" xml:space="preserve">
<style type="text/css">
	.st0{fill:#EFEFEF;}
	.st1{fill:#A4AFC1;}
	.st2{fill:#6154FA;}
	.st3{fill:#F3F3F1;}
	.st4{fill:#6580E7;}
	.st5{fill:#2FDF84;}
	.st6{fill:#607DD8;}
	.st7{fill:#D5DBE1;}
</style>
<path class="st0" d="M496.4,289.5c-53.8-82.4-48.1-166.8-74-206.5S319.2-25.1,136.6,94.1S0.5,343,29,386.7
	C162.6,591.1,591.7,435.4,496.4,289.5z"/>
<g>
	<path class="st1" d="M424,466.8c-11.8,0-21.3-9.6-21.3-21.3c0-11.8,9.6-21.3,21.3-21.3s21.3,9.6,21.3,21.3
		C445.4,457.2,435.8,466.8,424,466.8z M424,438.3c-3.9,0-7.1,3.2-7.1,7.1s3.2,7.1,7.1,7.1s7.1-3.2,7.1-7.1S427.9,438.3,424,438.3z"
		/>
	<path class="st1" d="M120.6,123.2l20.1-20.1l10.1,10.1l-20.1,20.1L120.6,123.2z"/>
	<path class="st1" d="M62.8,181l20.1-20.1L93,171l-20.2,20L62.8,181z"/>
	<path class="st1" d="M62.8,110.6l10.1-10.1L93,120.6l-10.1,10.1L62.8,110.6z"/>
</g>
<path class="st2" d="M373.3,174.2h-35.6v-35.6L380.4,96v35.6H416L373.3,174.2z"/>
<path class="st2" d="M359.1,284.4c0,17.6-3.5,34.4-9.7,49.7c-4,9.7-9.1,18.9-15.1,27.3c-23.9,33.1-62.8,54.6-106.7,54.6
	C154.9,416,96,357.1,96,284.4s58.9-131.6,131.6-131.6S359.1,211.8,359.1,284.4L359.1,284.4z"/>
<circle class="st3" cx="227.6" cy="284.4" r="81.8"/>
<circle class="st4" cx="227.6" cy="284.4" r="32"/>
<path class="st5" d="M227.6,284.4l106.7-106.7L227.6,284.4z"/>
<path class="st6" d="M124.4,284.4c0-67.9,51.4-123.7,117.3-130.8c-4.7-0.5-9.4-0.8-14.2-0.8C154.9,152.9,96,211.8,96,284.4
	S154.9,416,227.6,416c4.8,0,9.5-0.3,14.2-0.8C175.8,408.1,124.4,352.3,124.4,284.4z"/>
<path class="st7" d="M174.2,284.4c0-40.3,29.2-73.7,67.6-80.5c-4.6-0.8-9.4-1.3-14.2-1.3c-45.2,0-81.8,36.6-81.8,81.8
	s36.6,81.8,81.8,81.8c4.9,0,9.6-0.5,14.2-1.3C203.4,358.2,174.2,324.8,174.2,284.4z"/>
<path class="st6" d="M224,284.4c0-12.5,7.3-23.3,17.8-28.5c-4.3-2.1-9.1-3.5-14.2-3.5c-17.7,0-32,14.3-32,32s14.3,32,32,32
	c5.1,0,9.9-1.3,14.2-3.5C231.3,307.7,224,297,224,284.4z"/>
<path class="st6" d="M380.4,96l-42.7,42.7v35.6l42.7-42.7V96z"/>
<path d="M373.3,184.9h-35.6c-5.9,0-10.7-4.8-10.7-10.7v-35.6c0-2.8,1.1-5.5,3.1-7.5l42.7-42.7c3.1-3.1,7.7-4,11.6-2.3
	c4,1.6,6.6,5.5,6.6,9.9v24.9h25c4.3,0,8.2,2.6,9.9,6.6c1.6,4,0.7,8.6-2.3,11.6l-42.7,42.7C378.9,183.8,376.2,184.9,373.3,184.9
	L373.3,184.9z M348.4,163.6h20.5l21.3-21.3h-9.8c-5.9,0-10.7-4.8-10.7-10.7v-9.8l-21.3,21.3V163.6z"/>
<path d="M227.6,426.7c-78.4,0-142.2-63.8-142.2-142.2s63.8-142.2,142.2-142.2S369.8,206,369.8,284.4c0,13.8-2,27.4-5.8,40.5
	l-20.5-6.1c3.3-11.1,5-22.7,5-34.4c0-66.7-54.2-120.9-120.9-120.9s-120.9,54.2-120.9,120.9s54.2,120.9,120.9,120.9
	c47.2,0,90.4-27.7,110-70.6l19.4,8.9C333.8,394.1,283.1,426.7,227.6,426.7L227.6,426.7z"/>
<path d="M227.6,376.9c-51,0-92.4-41.5-92.4-92.4s41.5-92.4,92.4-92.4s92.4,41.5,92.4,92.4S278.5,376.9,227.6,376.9z M227.6,213.3
	c-39.2,0-71.1,31.9-71.1,71.1s31.9,71.1,71.1,71.1s71.1-31.9,71.1-71.1S266.8,213.3,227.6,213.3z"/>
<path d="M227.6,327.1c-23.5,0-42.7-19.1-42.7-42.7c0-23.5,19.1-42.7,42.7-42.7s42.7,19.1,42.7,42.7
	C270.2,308,251.1,327.1,227.6,327.1z M227.6,263.1c-11.8,0-21.3,9.6-21.3,21.3c0,11.8,9.6,21.3,21.3,21.3s21.3-9.6,21.3-21.3
	C248.9,272.7,239.3,263.1,227.6,263.1z"/>
<path d="M227.6,295.1c-2.7,0-5.5-1-7.5-3.1c-4.2-4.2-4.2-10.9,0-15.1l106.7-106.7c4.2-4.2,10.9-4.2,15.1,0s4.2,10.9,0,15.1
	L235.1,292C233,294.1,230.3,295.1,227.6,295.1L227.6,295.1z"/>
</svg>
