<?xml version="1.0" encoding="utf-8"?>
<!-- Generator: Adobe Illustrator 25.2.1, SVG Export Plug-In . SVG Version: 6.00 Build 0)  -->
<svg version="1.1" id="line" xmlns="http://www.w3.org/2000/svg" xmlns:xlink="http://www.w3.org/1999/xlink" x="0px" y="0px"
	 viewBox="0 0 512 512" style="enable-background:new 0 0 512 512;" xml:space="preserve">
<style type="text/css">
	.st0{fill:#EFEFEF;}
	.st1{fill:#A4AFC1;}
	.st2{fill:#6154FA;}
	.st3{fill:#F3F3F1;}
	.st4{fill:#607DD8;}
	.st5{fill:#D5DBE1;}
</style>
<path class="st0" d="M119.1,452.7c98.4,0,165.9,51,213.3,51s147-27.2,147-245.3S345.5,8.3,293.4,8.3
	C49.2,8.3-55.1,452.7,119.1,452.7L119.1,452.7z"/>
<path class="st1" d="M49.8,369.8c-11.8,0-21.3-9.6-21.3-21.3c0-11.8,9.6-21.3,21.3-21.3s21.3,9.6,21.3,21.3
	C71.1,360.2,61.5,369.8,49.8,369.8z M49.8,341.3c-3.9,0-7.1,3.2-7.1,7.1s3.2,7.1,7.1,7.1s7.1-3.2,7.1-7.1S53.7,341.3,49.8,341.3z"/>
<path class="st2" d="M216.5,130.4C205.8,110.1,184.6,96,159.9,96C124.6,96,96,124.6,96,159.9c0,24.7,14.1,45.9,34.4,56.6
	L216.5,130.4z"/>
<path class="st2" d="M381.6,216.5c20.3-10.7,34.4-31.9,34.4-56.6c0-35.3-28.6-63.9-63.9-63.9c-24.7,0-45.9,14.1-56.6,34.4
	L381.6,216.5z"/>
<circle class="st3" cx="256" cy="256" r="131.6"/>
<path class="st4" d="M128,159.9c0-29.8,20.5-54.6,48.1-61.7c-5.2-1.4-10.6-2.2-16.3-2.2C124.6,96,96,124.6,96,159.9
	c0,24.7,14.1,45.9,34.4,56.6l14.1-14.1C134.3,191.1,128,176.3,128,159.9L128,159.9z"/>
<path class="st5" d="M156.4,256c0-67.2,50.5-122.6,115.6-130.5c-5.3-0.6-10.6-1.1-16-1.1c-72.7,0-131.6,58.9-131.6,131.6
	S183.3,387.6,256,387.6c5.4,0,10.7-0.4,16-1.1C206.9,378.6,156.4,323.2,156.4,256z"/>
<path class="st4" d="M381.4,216.3l0.1,0.1c6.8-3.6,12.8-8.4,17.9-14.1l-72-72c8.2-15.7,22.8-27.6,40.3-32.2
	c-5.1-1.3-10.3-2.2-15.7-2.2c-24.7,0-45.9,14.1-56.6,34.4l0.1,0.1C336.4,143.4,368.6,175.6,381.4,216.3L381.4,216.3z"/>
<path d="M256,266.7h-74.7v-21.3h64v-64h21.3V256C266.7,261.9,261.9,266.7,256,266.7z"/>
<path d="M256,398.2c-78.4,0-142.2-63.8-142.2-142.2S177.6,113.8,256,113.8S398.2,177.6,398.2,256S334.4,398.2,256,398.2z M256,135.1
	c-66.7,0-120.9,54.2-120.9,120.9S189.3,376.9,256,376.9S376.9,322.7,376.9,256S322.7,135.1,256,135.1z"/>
<path d="M125.5,225.9c-24.7-13-40.1-38.3-40.1-66c0-41.1,33.4-74.5,74.5-74.5c27.8,0,53.1,15.4,66,40.1l-18.9,9.9
	c-9.3-17.7-27.4-28.7-47.2-28.7c-29.3,0-53.2,23.9-53.2,53.2c0,19.8,11,37.9,28.7,47.2L125.5,225.9z"/>
<path d="M386.5,225.9l-9.9-18.9c17.7-9.3,28.7-27.4,28.7-47.2c0-29.3-23.9-53.2-53.2-53.2c-19.8,0-37.9,11-47.2,28.7l-18.9-9.9
	c13-24.8,38.3-40.1,66-40.1c41.1,0,74.5,33.4,74.5,74.5C426.7,187.6,411.3,212.9,386.5,225.9z"/>
<path d="M312.2,363.6l17.9-11.7l43.8,67.1L356,430.6L312.2,363.6z"/>
<path d="M138.1,419.2l43.8-67.1l17.9,11.7L156,430.9L138.1,419.2z"/>
</svg>
