<?xml version="1.0" encoding="utf-8"?>
<!-- Generator: Adobe Illustrator 25.2.1, SVG Export Plug-In . SVG Version: 6.00 Build 0)  -->
<svg version="1.1" id="Layer_1" xmlns="http://www.w3.org/2000/svg" xmlns:xlink="http://www.w3.org/1999/xlink" x="0px" y="0px"
	 viewBox="0 0 512 512" style="enable-background:new 0 0 512 512;" xml:space="preserve">
<style type="text/css">
	.st0{fill:#EFEFEF;}
	.st1{fill:#A4AFC1;}
	.st2{fill:#6580E7;}
	.st3{fill:#607DD8;}
</style>
<g id="Layer_2_1_">
	<g>
		<path class="st0" d="M190.7,498.4c89.6-40.7,172.2-22.2,215.3-41.8c43.2-19.6,122.6-85.6,32.4-284.1S213.2,0.2,165.7,21.7
			C-56.6,122.6,32.1,570.4,190.7,498.4L190.7,498.4z"/>
	</g>
</g>
<g id="color">
	<g>
		<g>
			<path class="st1" d="M190.3,436.3l10.1-10.1l20.1,20.1l-10.1,10.1L190.3,436.3z"/>
		</g>
		<g>
			<path class="st1" d="M132.5,378.5l10.1-10.1l20.1,20.1l-10.1,10.1L132.5,378.5z"/>
		</g>
		<g>
			<path class="st1" d="M192.8,388.5l20.1-20.1l10.1,10.1l-20.1,20.1L192.8,388.5z"/>
		</g>
		<g>
			<path class="st1" d="M135,446.3l20.1-20.1l10.1,10.1L145,456.4L135,446.3z"/>
		</g>
	</g>
	<g>
		<circle class="st2" cx="192" cy="192" r="98.8"/>
	</g>
	<g>
		<path class="st3" d="M128.8,192c0-48.5,35-88.7,81-97.1c-5.8-1.1-11.7-1.7-17.8-1.7c-54.6,0-98.8,44.2-98.8,98.8
			s44.2,98.8,98.8,98.8c6.1,0,12-0.6,17.8-1.7C163.7,280.7,128.8,240.5,128.8,192L128.8,192z"/>
	</g>
</g>
<g id="line">
	<g>
		<path d="M192,298.7c-58.8,0-106.7-47.8-106.7-106.7S133.2,85.3,192,85.3S298.7,133.2,298.7,192S250.8,298.7,192,298.7z M192,106.7
			c-47.1,0-85.3,38.3-85.3,85.3s38.3,85.3,85.3,85.3s85.3-38.3,85.3-85.3S239.1,106.7,192,106.7z"/>
	</g>
	<g>
		<g>
			<path d="M197.4,241.8h-30.3v-21.3h30.3c4.9,0,8.8-4,8.8-8.8c0-5-4-9-8.8-9h-10.8c-16.6,0-30.2-13.5-30.2-30.2
				c0-16.8,13.5-30.3,30.2-30.3h30.3v21.3h-30.3c-4.9,0-8.8,4-8.8,8.8c0,5,4,9,8.8,9h10.8c16.6,0,30.2,13.5,30.2,30.2
				C227.6,228.3,214,241.8,197.4,241.8z"/>
		</g>
		<g>
			<path d="M181.3,131.6h21.3v21.3h-21.3V131.6z"/>
		</g>
		<g>
			<path d="M181.3,231.1h21.3v21.3h-21.3V231.1z"/>
		</g>
	</g>
	<g>
		<path d="M355.6,426.7c-2.9,0-5.7-1.2-7.8-3.3l-60.4-64l15.5-14.6l52.7,55.8l52.7-55.8l15.5,14.6l-60.4,64
			C361.3,425.5,358.5,426.7,355.6,426.7z"/>
	</g>
	<g>
		<path d="M366.2,416h-21.3V170.7c0-35.3-28.7-64-64-64V85.3c47.1,0,85.3,38.3,85.3,85.3V416z"/>
	</g>
</g>
</svg>
