<?xml version="1.0" encoding="UTF-8"?>
<svg xmlns="http://www.w3.org/2000/svg" version="1.1" width="300" height="300" viewBox="0 0 300 300"><rect x="0" y="0" width="300" height="300" fill="#ffffff"/><g transform="scale(12)"><g transform="translate(0,0)"><path fill-rule="evenodd" d="M10 0L10 2L11 2L11 0ZM12 0L12 1L13 1L13 2L12 2L12 4L14 4L14 8L17 8L17 9L16 9L16 10L14 10L14 9L12 9L12 7L13 7L13 5L11 5L11 6L10 6L10 4L11 4L11 3L8 3L8 4L9 4L9 5L8 5L8 7L9 7L9 8L6 8L6 9L5 9L5 8L0 8L0 11L4 11L4 12L0 12L0 17L1 17L1 13L4 13L4 14L2 14L2 17L4 17L4 16L5 16L5 15L4 15L4 14L5 14L5 12L6 12L6 13L7 13L7 12L8 12L8 11L9 11L9 10L8 10L8 9L10 9L10 11L11 11L11 9L12 9L12 10L13 10L13 11L12 11L12 13L13 13L13 12L14 12L14 13L15 13L15 12L14 12L14 11L16 11L16 12L17 12L17 10L18 10L18 8L17 8L17 4L16 4L16 3L17 3L17 0L16 0L16 1L14 1L14 0ZM8 1L8 2L9 2L9 1ZM13 2L13 3L15 3L15 2ZM15 4L15 5L16 5L16 4ZM9 6L9 7L10 7L10 6ZM11 6L11 7L12 7L12 6ZM15 6L15 7L16 7L16 6ZM10 8L10 9L11 9L11 8ZM19 8L19 9L20 9L20 8ZM21 8L21 10L22 10L22 11L23 11L23 12L20 12L20 11L19 11L19 12L18 12L18 13L17 13L17 14L18 14L18 13L19 13L19 15L18 15L18 16L16 16L16 14L15 14L15 15L14 15L14 16L15 16L15 17L12 17L12 15L13 15L13 14L9 14L9 13L11 13L11 12L9 12L9 13L8 13L8 14L6 14L6 15L8 15L8 16L9 16L9 17L8 17L8 19L10 19L10 18L11 18L11 17L12 17L12 18L13 18L13 19L12 19L12 21L13 21L13 20L14 20L14 21L15 21L15 23L14 23L14 24L15 24L15 25L16 25L16 24L17 24L17 23L18 23L18 25L25 25L25 20L24 20L24 19L25 19L25 18L23 18L23 17L24 17L24 16L25 16L25 14L23 14L23 15L24 15L24 16L19 16L19 15L21 15L21 14L22 14L22 13L24 13L24 11L25 11L25 10L22 10L22 8ZM23 8L23 9L24 9L24 8ZM1 9L1 10L2 10L2 9ZM3 9L3 10L4 10L4 11L6 11L6 12L7 12L7 11L8 11L8 10L7 10L7 9L6 9L6 10L4 10L4 9ZM6 10L6 11L7 11L7 10ZM20 13L20 14L21 14L21 13ZM3 15L3 16L4 16L4 15ZM9 15L9 16L10 16L10 17L11 17L11 16L10 16L10 15ZM6 16L6 17L7 17L7 16ZM15 17L15 19L14 19L14 20L15 20L15 19L16 19L16 17ZM17 17L17 20L20 20L20 17ZM21 17L21 18L22 18L22 19L21 19L21 20L23 20L23 21L24 21L24 20L23 20L23 18L22 18L22 17ZM18 18L18 19L19 19L19 18ZM8 20L8 25L9 25L9 22L10 22L10 23L11 23L11 25L12 25L12 23L13 23L13 22L11 22L11 21L9 21L9 20ZM16 21L16 23L15 23L15 24L16 24L16 23L17 23L17 22L18 22L18 23L19 23L19 22L18 22L18 21ZM20 22L20 23L21 23L21 24L24 24L24 22L22 22L22 23L21 23L21 22ZM0 0L0 7L7 7L7 0ZM1 1L1 6L6 6L6 1ZM2 2L2 5L5 5L5 2ZM18 0L18 7L25 7L25 0ZM19 1L19 6L24 6L24 1ZM20 2L20 5L23 5L23 2ZM0 18L0 25L7 25L7 18ZM1 19L1 24L6 24L6 19ZM2 20L2 23L5 23L5 20Z" fill="#000000"/></g></g></svg>
